# xmcd CD database file
#
# Track frame offsets:
#	150
#	6868
#	20246
#	32153
#	42730
#	57122
#	75463
#	87451
#	99223
#	112321
#	123906
#	133997
#
# Disc length: 1979 seconds
#
# Revision: 0
# Processed by: cddbd v1.5.2PL0 Copyright (c) Steve Scherf et al.
# Submitted via: CDex 1.51
#
DISCID=a307b90c
DTITLE=Slam and Howie - Vicious Songs (Bastard Speed Country)
DYEAR=2007
DGENRE=Country
TTITLE0=Farewell To Nashville
TTITLE1=Shotgun Rag
TTITLE2=Young Men Like Ol Ladies
TTITLE3=Alabama Zak
TTITLE4=My Forsaken Grave
TTITLE5=Lonely Rider
TTITLE6=Drinkin' and Ramblin'
TTITLE7=Cowboy Song
TTITLE8=A Million Flowers
TTITLE9=I'm Not Jesus, I'm The Holy Ghost
TTITLE10=That's All Right Momma
TTITLE11=A Good Day To Die
EXTD=YEAR: 2007
EXTT0=
EXTT1=
EXTT2=
EXTT3=
EXTT4=
EXTT5=
EXTT6=
EXTT7=
EXTT8=
EXTT9=
EXTT10=
EXTT11=
PLAYORDER=
